<svg enable-background="new 0 0 64 64" height="64" viewBox="0 0 64 64" width="64" xmlns="http://www.w3.org/2000/svg"><g clip-rule="evenodd" fill="#231f20" fill-rule="evenodd"><path d="m48 12h-44c-2.211 0-4 1.789-4 4v28c0 2.211 1.789 4 4 4h8v12c0 1.617.973 3.078 2.469 3.695.496.207 1.015.305 1.531.305 1.039 0 2.062-.406 2.828-1.172l14.828-14.828h14.344c2.211 0 4-1.789 4-4v-28c0-2.211-1.789-4-4-4z"/><path d="m60 0h-44c-2.211 0-4 1.789-4 4v4h40c2.211 0 4 1.789 4 4v24h4c2.211 0 4-1.789 4-4v-28c0-2.211-1.789-4-4-4z"/></g></svg>